<?xml version="1.0" standalone="no"?>
<!DOCTYPE svg PUBLIC "-//W3C//DTD SVG 20010904//EN"
 "http://www.w3.org/TR/2001/REC-SVG-20010904/DTD/svg10.dtd">
<svg version="1.0" xmlns="http://www.w3.org/2000/svg"
 width="753.000000pt" height="753.000000pt" viewBox="0 0 753.000000 753.000000"
 preserveAspectRatio="xMidYMid meet">
<metadata>
Created by potrace 1.11, written by Peter Selinger 2001-2013
</metadata>
<g transform="translate(0.000000,753.000000) scale(0.100000,-0.100000)"
fill="#000000" stroke="none">
<path d="M0 3765 l0 -3765 3765 0 3765 0 0 3765 0 3765 -3765 0 -3765 0 0
-3765z m2370 2669 c0 -8 -5 -12 -10 -9 -6 4 -8 11 -5 16 9 14 15 11 15 -7z
m-173 -140 c32 -9 69 -18 83 -20 14 -2 34 -6 45 -8 15 -2 20 -11 21 -37 0 -22
5 -34 15 -35 7 -1 20 -2 27 -3 20 -2 14 -21 -7 -21 -11 0 -21 -9 -24 -22 -7
-24 8 -48 28 -48 8 0 10 -9 7 -25 -2 -14 -9 -25 -14 -25 -5 0 -6 -9 -3 -20 4
-11 2 -20 -4 -20 -19 0 -13 -67 7 -74 31 -12 77 -41 97 -61 15 -15 19 -27 14
-45 -14 -49 -9 -83 14 -108 13 -15 18 -26 11 -29 -6 -2 -9 -15 -6 -29 3 -15
-2 -33 -14 -46 -14 -15 -16 -22 -6 -25 17 -6 15 -23 -3 -23 -8 0 -22 -16 -31
-35 -9 -19 -21 -35 -26 -35 -5 0 -29 -19 -52 -42 -50 -50 -112 -101 -129 -107
-7 -2 -18 -13 -26 -23 -7 -11 -24 -23 -37 -28 -13 -5 -24 -16 -24 -25 0 -8 -9
-15 -20 -15 -11 0 -29 -9 -40 -20 -11 -11 -26 -20 -34 -20 -8 0 -16 -5 -18
-11 -2 -6 -14 -8 -31 -4 -15 4 -24 12 -21 17 4 6 -3 5 -15 -2 -16 -8 -20 -17
-16 -31 9 -28 -21 -59 -57 -59 -16 0 -31 -6 -34 -15 -3 -8 -26 -17 -52 -21
-63 -9 -95 -27 -146 -81 -54 -57 -66 -76 -55 -89 13 -16 3 -35 -16 -28 -10 4
-12 0 -8 -15 4 -16 1 -21 -16 -21 -11 0 -21 -4 -21 -10 0 -5 -9 -10 -19 -10
-10 0 -22 -7 -25 -16 -5 -13 -9 -13 -26 -1 -27 19 -140 -2 -200 -37 -25 -14
-53 -26 -62 -26 -9 0 -23 -8 -30 -19 -7 -10 -22 -20 -33 -23 -11 -2 -19 -11
-19 -21 1 -9 -5 -17 -13 -17 -8 0 -11 -4 -8 -10 3 -5 -1 -24 -9 -42 -8 -18
-17 -43 -21 -54 -16 -57 -65 -75 -146 -54 -48 13 -93 58 -78 76 9 11 8 18 -1
29 -10 12 -9 16 3 21 13 5 16 35 7 79 -1 6 -1 12 0 15 5 13 6 49 1 48 -20 -2
-22 4 -5 17 17 13 17 14 2 15 -19 0 -25 16 -8 22 5 2 11 20 13 40 2 21 7 41
10 45 4 3 7 21 7 39 0 40 9 66 21 58 5 -3 9 11 9 30 0 20 5 36 10 36 6 0 10 7
10 16 0 8 7 22 15 31 8 8 13 19 9 24 -3 5 11 25 31 44 19 19 38 49 42 66 4 21
10 28 21 24 12 -4 13 -3 3 9 -13 16 -6 40 9 31 4 -3 11 7 14 21 13 51 50 124
63 124 7 0 13 7 13 15 0 9 6 12 18 9 15 -5 15 -4 -1 6 -18 11 -18 13 0 33 13
16 13 18 2 9 -23 -17 -48 10 -29 33 7 8 16 12 21 9 5 -3 6 3 3 13 -4 14 -1 13
15 -5 11 -13 25 -21 31 -17 5 3 10 -2 11 -12 0 -10 3 -13 6 -5 2 6 9 12 14 12
4 0 6 -7 3 -15 -4 -8 -1 -15 5 -15 6 0 13 11 17 25 5 19 11 24 25 20 11 -4 19
-2 19 5 0 6 4 8 10 5 5 -3 17 4 27 16 10 12 26 31 36 41 14 15 19 38 21 98 2
58 7 85 19 98 9 10 17 32 17 49 0 17 8 38 20 48 12 10 18 25 16 32 -3 7 -1 15
4 18 6 4 10 0 10 -7 1 -8 4 -7 10 4 14 23 2 48 -24 49 -14 0 -16 2 -6 6 8 4
21 14 28 25 7 10 19 18 25 18 19 -1 50 -32 67 -65 8 -16 23 -40 33 -52 11 -12
16 -26 13 -32 -4 -6 -2 -20 4 -31 11 -20 11 -20 40 2 17 12 30 30 30 40 0 10
5 18 11 18 6 0 8 -9 4 -20 -4 -14 -2 -20 9 -20 9 0 18 11 22 24 6 25 33 30 62
12 9 -6 12 -1 10 16 -2 12 -7 29 -11 36 -11 17 1 33 21 30 13 -2 16 4 15 27
-2 26 0 24 18 -17 l21 -47 21 20 c16 15 18 22 9 31 -9 9 -12 9 -12 -2 0 -13
-2 -13 -9 -1 -7 11 -3 18 16 28 32 16 33 16 33 -2 0 -8 9 -15 21 -15 11 0 18
-4 15 -8 -2 -4 4 -8 15 -8 19 0 19 1 3 13 -10 7 -22 13 -27 13 -10 0 1 61 14
75 15 15 10 28 -6 15 -12 -10 -15 -9 -15 8 0 13 9 22 27 27 15 3 34 15 44 26
9 10 30 22 48 25 34 7 38 13 19 32 -16 16 -2 16 69 -4z m2296 -77 c19 -44 70
-93 111 -107 40 -13 102 -15 173 -5 44 6 56 4 83 -15 47 -33 71 -77 59 -108
-5 -13 -6 -34 -2 -46 4 -11 6 -27 5 -34 -2 -6 8 -16 21 -21 30 -12 71 -102 65
-143 -3 -16 -1 -31 4 -34 4 -3 1 -12 -7 -21 -12 -11 -13 -19 -5 -28 16 -19
-17 -35 -69 -35 -22 0 -42 -4 -45 -9 -3 -5 -15 -7 -26 -4 -11 3 -56 0 -101 -7
-60 -10 -79 -16 -75 -26 5 -14 -15 -20 -26 -8 -4 3 -43 7 -88 8 -54 1 -84 6
-89 15 -5 7 -12 12 -17 12 -5 0 -17 2 -26 5 -11 3 -29 -5 -45 -20 -15 -14 -34
-26 -42 -26 -9 0 -11 -7 -8 -21 4 -13 0 -22 -11 -27 -14 -5 -12 -7 7 -12 34
-8 38 -28 7 -36 -14 -3 -26 -10 -26 -15 0 -5 -9 -9 -19 -9 -26 0 -36 31 -15
47 14 10 15 15 4 28 -7 8 -19 15 -26 15 -8 0 -14 10 -14 25 0 16 6 25 15 25
16 0 22 64 6 74 -14 9 0 56 19 66 27 14 32 57 7 64 -10 2 -16 9 -12 15 3 6 1
11 -4 11 -22 0 -10 18 15 24 l25 7 -23 19 c-13 11 -17 19 -10 20 18 0 14 18
-5 22 -14 2 -18 15 -19 56 -2 51 -2 52 23 46 17 -5 24 -3 20 3 -4 6 0 14 9 17
13 5 14 9 4 21 -10 12 -10 18 0 30 10 12 7 17 -14 26 -14 7 -26 17 -26 22 0 6
-7 18 -15 27 -13 14 -13 19 1 39 11 15 22 20 33 16 49 -20 137 -4 146 26 10
29 33 22 48 -14z m-3073 -97 c0 -5 -4 -10 -10 -10 -5 0 -10 5 -10 10 0 6 5 10
10 10 6 0 10 -4 10 -10z m65 -28 c0 -18 -20 -15 -23 4 -3 10 1 15 10 12 7 -3
13 -10 13 -16z m945 -42 c0 -5 -4 -10 -10 -10 -5 0 -10 5 -10 10 0 6 5 10 10
10 6 0 10 -4 10 -10z m1775 -150 c3 -5 -3 -10 -15 -10 -12 0 -18 5 -15 10 3 6
10 10 15 10 5 0 12 -4 15 -10z m-2825 -110 c0 -5 -9 -10 -21 -10 -11 0 -17 5
-14 10 3 6 13 10 21 10 8 0 14 -4 14 -10z m-170 -70 c0 -13 -19 -22 -30 -15
-14 9 0 34 16 28 8 -3 14 -9 14 -13z m4310 -115 c0 -10 -10 -15 -29 -15 -32 0
-50 15 -29 23 27 11 58 7 58 -8z m-832 -124 c18 -11 -24 -23 -102 -27 -64 -4
-69 13 -6 21 18 3 35 7 38 10 8 8 56 6 70 -4z m-3588 -21 c0 -5 -4 -10 -10
-10 -5 0 -10 5 -10 10 0 6 5 10 10 10 6 0 10 -4 10 -10z m3934 -25 c21 -3 48
-11 60 -17 11 -7 25 -11 30 -10 4 2 14 -2 21 -8 9 -7 21 -7 40 0 15 6 36 8 46
5 11 -4 34 -7 51 -7 18 -1 43 -8 56 -16 18 -12 28 -12 48 -3 35 16 64 14 64
-5 0 -18 28 -12 78 18 24 15 42 18 67 14 40 -8 46 -21 13 -29 -18 -5 -19 -8
-8 -22 11 -13 11 -19 -3 -32 -9 -9 -24 -17 -34 -18 -29 -3 -53 -16 -48 -25 3
-5 -6 -21 -20 -36 -17 -18 -22 -30 -14 -34 14 -9 -17 -80 -36 -80 -7 0 -18 -7
-25 -15 -13 -16 -11 -18 43 -29 l27 -6 -46 -47 c-40 -40 -49 -45 -65 -35 -23
15 -66 16 -74 2 -3 -5 1 -23 10 -39 22 -43 18 -62 -21 -95 -29 -24 -39 -27
-57 -18 -12 5 -38 17 -58 26 -24 10 -43 28 -53 51 -16 33 -39 45 -50 26 -3 -5
-25 -6 -48 -4 -33 4 -55 -1 -94 -21 -29 -14 -62 -26 -74 -26 -12 0 -36 -11
-53 -24 -48 -36 -110 -50 -152 -34 -19 6 -35 15 -35 19 0 3 -17 9 -37 13 -21
3 -51 13 -67 21 -15 8 -34 15 -41 15 -6 0 -20 9 -29 19 -15 16 -27 18 -70 14
-47 -5 -52 -3 -63 18 -6 13 -14 35 -17 49 -10 42 -22 56 -39 42 -20 -17 -47
-4 -47 22 0 12 -10 30 -22 41 -15 12 -18 20 -10 23 10 3 10 7 1 18 -9 11 -8
14 2 14 8 0 21 5 29 10 13 8 12 12 -7 25 -28 20 -30 51 -3 58 12 3 20 14 20
26 0 12 7 22 15 23 8 0 21 1 28 2 6 1 14 3 17 6 16 17 68 30 115 30 34 0 55 4
55 11 0 6 9 9 20 6 11 -3 18 -1 15 3 -3 5 25 11 62 14 38 4 81 11 97 16 17 5
32 6 35 1 4 -4 24 -11 45 -14 22 -4 43 -12 47 -18 4 -7 14 -9 24 -6 9 4 14 3
10 -3 -3 -6 1 -10 10 -10 9 0 14 4 10 9 -3 6 8 8 29 4 21 -3 36 -1 41 7 5 9 4
11 -3 6 -8 -4 -10 -2 -6 8 3 8 12 12 21 9 10 -4 14 0 12 13 -5 30 9 43 44 38
17 -2 49 -6 71 -9z m-1027 -31 c-3 -3 -12 -4 -19 -1 -8 3 -5 6 6 6 11 1 17 -2
13 -5z m81 -175 c10 -16 10 -24 1 -35 -8 -10 -8 -14 0 -14 6 0 11 -11 11 -25
0 -17 -6 -25 -17 -25 -9 0 -13 3 -10 6 4 4 -5 20 -18 36 -33 39 -34 78 -2 78
12 0 28 -9 35 -21z m-3218 -249 c0 -5 -5 -10 -11 -10 -5 0 -7 5 -4 10 3 6 8
10 11 10 2 0 4 -4 4 -10z m3171 -190 c25 -42 50 -92 46 -96 -7 -7 -55 71 -82
132 -32 72 -32 81 1 24 14 -25 29 -52 35 -60z m-3191 -202 c0 -4 -7 -8 -15 -8
-10 0 -15 10 -15 28 1 26 1 26 15 8 8 -11 15 -23 15 -28z m3334 -4 c3 -8 11
-12 16 -9 6 4 22 -5 34 -18 13 -14 27 -23 30 -20 3 4 6 0 6 -8 1 -8 32 -39 71
-69 39 -30 77 -60 84 -67 7 -7 24 -15 39 -19 14 -3 26 -11 26 -16 0 -6 6 -5
15 2 11 9 15 9 15 1 0 -7 5 -9 10 -6 6 3 10 1 10 -5 0 -7 7 -10 15 -6 8 3 15
0 15 -6 0 -7 12 -8 33 -4 19 4 27 3 18 -3 -13 -8 0 -13 86 -28 18 -3 38 -11
44 -19 6 -8 22 -14 35 -14 12 0 26 -4 29 -10 3 -5 15 -10 26 -10 10 0 19 -4
19 -10 0 -15 32 -12 54 5 11 8 28 15 38 15 9 0 22 9 27 19 6 10 25 24 42 30
17 6 28 15 24 20 -10 18 58 27 190 25 144 -2 181 -8 194 -33 5 -8 13 -12 17
-8 4 4 2 13 -4 19 -17 17 -15 38 3 38 8 0 15 9 15 20 0 13 9 22 25 26 53 13
278 5 410 -15 39 -6 90 -14 115 -18 25 -3 65 -15 89 -25 40 -17 43 -20 37 -48
-5 -27 -2 -32 22 -41 l27 -11 -22 -11 c-13 -5 -23 -14 -23 -18 0 -5 -15 -16
-32 -25 -39 -20 -92 -62 -154 -121 -24 -24 -47 -43 -51 -43 -3 0 -15 -8 -25
-17 -18 -16 -17 -17 9 -35 16 -10 42 -18 60 -18 40 0 65 -9 57 -22 -3 -5 -7
-29 -8 -53 -1 -34 3 -45 17 -49 9 -2 17 -13 17 -24 0 -10 11 -31 25 -46 24
-26 24 -27 5 -46 -11 -11 -20 -22 -20 -25 0 -3 -2 -5 -5 -5 -3 1 -13 -6 -21
-15 -9 -8 -24 -15 -34 -15 -10 0 -25 -9 -34 -21 -11 -17 -20 -20 -45 -14 -27
6 -30 10 -28 38 2 36 1 37 -52 37 -31 0 -45 -7 -74 -36 l-35 -36 -58 15 c-33
8 -66 18 -75 22 -10 3 -23 -1 -33 -11 -10 -9 -28 -16 -42 -16 -14 0 -24 -6
-24 -14 0 -12 -6 -12 -37 1 -44 19 -52 26 -35 32 6 3 12 9 12 15 0 6 -6 6 -15
-2 -25 -21 -142 107 -194 211 -33 68 -50 90 -79 107 -21 11 -48 32 -61 46
l-24 25 -45 -35 c-25 -18 -49 -34 -54 -34 -17 0 -63 28 -87 54 -28 30 -128 79
-143 70 -10 -6 -58 41 -58 57 0 26 -23 3 -45 -46 -13 -31 -30 -55 -39 -55 -10
0 -17 -15 -21 -47 -3 -27 -9 -60 -11 -75 -6 -29 -47 -60 -136 -101 -54 -24
-59 -25 -88 -11 -30 15 -32 34 -4 34 26 0 21 46 -9 78 -18 19 -19 26 -9 42 15
24 3 31 -42 28 -40 -2 -72 18 -56 37 12 14 -13 41 -29 31 -5 -3 -11 0 -14 7
-6 15 20 51 43 60 8 4 33 18 55 32 22 13 54 31 70 38 17 8 36 21 44 30 7 9 17
14 22 11 5 -3 9 2 9 12 0 13 3 14 15 4 8 -7 15 -8 15 -3 0 5 -37 42 -81 83
-88 79 -189 196 -189 217 0 18 17 16 24 -3z m80 -660 c5 -14 4 -15 -8 -5 -12
10 -15 9 -13 -8 1 -15 6 -20 17 -16 11 5 12 3 3 -5 -18 -20 -42 1 -32 28 10
26 24 29 33 6z m1593 -290 c-3 -3 -12 -4 -19 -1 -8 3 -5 6 6 6 11 1 17 -2 13
-5z"/>
<path d="M1196 5532 c-3 -5 1 -9 9 -9 8 0 12 4 9 9 -3 4 -7 8 -9 8 -2 0 -6 -4
-9 -8z"/>
<path d="M5186 5325 c4 -8 12 -15 19 -15 7 0 18 7 25 15 11 13 8 15 -18 15
-24 0 -30 -4 -26 -15z"/>
<path d="M5220 4981 c-8 -6 -17 -8 -21 -5 -4 2 -10 0 -13 -5 -16 -25 65 -38
89 -15 8 9 13 20 10 25 -8 12 -46 11 -65 0z"/>
<path d="M5345 4080 c3 -5 8 -10 11 -10 2 0 4 5 4 10 0 6 -5 10 -11 10 -5 0
-7 -4 -4 -10z"/>
<path d="M5783 3940 c-15 -6 -20 -15 -16 -28 6 -24 51 -35 75 -18 16 11 16 14
2 34 -16 24 -27 26 -61 12z"/>
<path d="M5429 3754 c-11 -13 -10 -17 4 -26 11 -5 16 -17 13 -26 -3 -9 -1 -24
4 -32 9 -13 10 -13 10 0 0 12 2 12 8 2 14 -22 62 2 61 30 -1 17 -2 19 -6 6 -2
-10 -11 -18 -20 -18 -10 0 -13 6 -10 18 21 65 22 62 -16 62 -19 0 -40 -7 -48
-16z"/>
<path d="M5390 3735 c-10 -12 -10 -15 4 -15 9 0 16 7 16 15 0 8 -2 15 -4 15
-2 0 -9 -7 -16 -15z"/>
</g>
</svg>
